<svg width="23" height="24" viewBox="0 0 23 24" fill="none" xmlns="http://www.w3.org/2000/svg">
<path d="M19.828 0.333313H2.3656C1.16506 0.333313 0.193714 1.38331 0.193714 2.66665L0.1828 23.6666L4.54839 19H19.828C21.0285 19 22.0108 17.95 22.0108 16.6666V2.66665C22.0108 1.38331 21.0285 0.333313 19.828 0.333313ZM16.5538 14.3333H5.63979C5.03952 14.3333 4.54839 13.8083 4.54839 13.1666C4.54839 12.525 5.03952 12 5.63979 12H16.5538C17.154 12 17.6452 12.525 17.6452 13.1666C17.6452 13.8083 17.154 14.3333 16.5538 14.3333ZM16.5538 10.8333H5.63979C5.03952 10.8333 4.54839 10.3083 4.54839 9.66665C4.54839 9.02498 5.03952 8.49998 5.63979 8.49998H16.5538C17.154 8.49998 17.6452 9.02498 17.6452 9.66665C17.6452 10.3083 17.154 10.8333 16.5538 10.8333ZM16.5538 7.33331H5.63979C5.03952 7.33331 4.54839 6.80831 4.54839 6.16665C4.54839 5.52498 5.03952 4.99998 5.63979 4.99998H16.5538C17.154 4.99998 17.6452 5.52498 17.6452 6.16665C17.6452 6.80831 17.154 7.33331 16.5538 7.33331Z" fill="black"/>
</svg>
